<svg width="78" height="76" viewBox="0 0 78 76" fill="none" xmlns="http://www.w3.org/2000/svg">
<path d="M72.8267 23.8838L46.0715 2.49505C41.9404 -0.82522 35.2613 -0.82522 31.1689 2.45644L4.41362 23.8838C1.40222 26.2775 -0.528175 31.3349 0.128158 35.1184L5.26299 65.8503C6.18958 71.3326 11.4402 75.7725 16.9998 75.7725H60.2405C65.7615 75.7725 71.0507 71.2939 71.9773 65.8503L77.1121 35.1184C77.7299 31.3349 75.7995 26.2775 72.8267 23.8838ZM38.6202 51.4109C33.2923 51.4109 28.9682 47.0869 28.9682 41.759C28.9682 36.4311 33.2923 32.107 38.6202 32.107C43.948 32.107 48.2721 36.4311 48.2721 41.759C48.2721 47.0869 43.948 51.4109 38.6202 51.4109Z" fill="#000"/>
</svg>
