<svg width="78" height="97" viewBox="0 0 78 97" fill="none" xmlns="http://www.w3.org/2000/svg">
<path d="M57.9205 10.8601C57.9205 16.8452 53.0455 21.7202 47.0604 21.7202H30.1669C27.1744 21.7202 24.4714 20.5135 22.4924 18.5346C20.5135 16.5556 19.3068 13.8526 19.3068 10.8601C19.3068 4.87497 24.1818 0 30.1669 0H47.0604C50.0529 0 52.7559 1.20668 54.7348 3.18563C56.7138 5.16458 57.9205 7.86753 57.9205 10.8601Z" fill="#000"/>
<path d="M71.58 14.6188C70.4699 13.7018 69.215 12.9778 67.8635 12.4468C66.4637 11.9159 65.064 13.026 64.7744 14.474C63.1333 22.7277 55.845 28.9542 47.0604 28.9542H30.1669C25.3402 28.9542 20.8031 27.0717 17.3761 23.6448C14.8663 21.1349 13.1286 17.9493 12.4529 14.5223C12.1633 13.0743 10.7153 11.9159 9.31554 12.4951C3.71656 14.7636 0 19.88 0 30.1608V77.221C0 91.7011 8.6398 96.5279 19.3068 96.5279H57.9205C68.5875 96.5279 77.2273 91.7011 77.2273 77.221V30.1608C77.2273 22.2933 75.0553 17.4666 71.58 14.6188ZM19.3068 49.4675H38.6136C40.5926 49.4675 42.2337 51.1086 42.2337 53.0875C42.2337 55.0664 40.5926 56.7075 38.6136 56.7075H19.3068C17.3279 56.7075 15.6868 55.0664 15.6868 53.0875C15.6868 51.1086 17.3279 49.4675 19.3068 49.4675ZM57.9205 76.0143H19.3068C17.3279 76.0143 15.6868 74.3733 15.6868 72.3943C15.6868 70.4154 17.3279 68.7743 19.3068 68.7743H57.9205C59.8994 68.7743 61.5405 70.4154 61.5405 72.3943C61.5405 74.3733 59.8994 76.0143 57.9205 76.0143Z" fill="#000"/>
</svg>
