<svg width="21" height="26" viewBox="0 0 21 26" fill="none" xmlns="http://www.w3.org/2000/svg">
<path d="M15.4511 2.89707C15.4511 4.49368 14.1506 5.79414 12.554 5.79414H8.04746C7.24916 5.79414 6.52811 5.47225 6.0002 4.94434C5.47229 4.41643 5.15039 3.69538 5.15039 2.89707C5.15039 1.30046 6.45085 0 8.04746 0H12.554C13.3523 0 14.0734 0.321897 14.6013 0.849808C15.1292 1.37772 15.4511 2.09877 15.4511 2.89707Z" fill="#000"/>
<path d="M19.0949 3.89976C18.7988 3.65512 18.464 3.46198 18.1035 3.32035C17.7301 3.17871 17.3567 3.47486 17.2794 3.86114C16.8416 6.06291 14.8974 7.7239 12.554 7.7239H8.04742C6.75984 7.7239 5.5495 7.22174 4.63532 6.30755C3.96577 5.63801 3.50224 4.7882 3.32198 3.87401C3.24472 3.48774 2.85844 3.17871 2.48504 3.33323C0.991442 3.93839 0 5.30323 0 8.0458V20.5997C0 24.4625 2.30478 25.7501 5.15035 25.7501H15.4511C18.2966 25.7501 20.6014 24.4625 20.6014 20.5997V8.0458C20.6014 5.94703 20.022 4.65944 19.0949 3.89976ZM5.15035 13.1961H10.3007C10.8286 13.1961 11.2664 13.6339 11.2664 14.1618C11.2664 14.6897 10.8286 15.1275 10.3007 15.1275H5.15035C4.62244 15.1275 4.18466 14.6897 4.18466 14.1618C4.18466 13.6339 4.62244 13.1961 5.15035 13.1961ZM15.4511 20.2778H5.15035C4.62244 20.2778 4.18466 19.84 4.18466 19.3121C4.18466 18.7842 4.62244 18.3464 5.15035 18.3464H15.4511C15.979 18.3464 16.4167 18.7842 16.4167 19.3121C16.4167 19.84 15.979 20.2778 15.4511 20.2778Z" fill="#000"/>
</svg>
